<svg width="650" height="260" viewBox="0 0 650 260" fill="none" xmlns="http://www.w3.org/2000/svg">
<g clip-path="url(#clip0_9_457)">
<path d="M628.994 0H324.498V0.0496461C223.303 0.0496461 122.107 0.0165487 20.9119 0.0661948C2.02984 0.0661948 -3.64637 7.92683 2.19532 25.6505C25.4959 96.3465 48.813 167.043 72.1301 237.739C77.1279 252.897 85.3195 259.219 101.537 259.235C250.922 259.351 400.308 259.384 549.693 259.335C563.709 259.335 573.258 252.318 577.561 239.311C601.06 168.036 624.509 96.7603 647.876 25.4519C653.652 7.82754 647.711 0 628.994 0Z" fill="#0C1E44"/>
<path d="M112.277 35.0165H145.374V54.544L125.566 62.8184V54.544H114.71C111.731 54.544 107.66 59.8396 107.66 62.8184C107.66 66.4756 108.338 69.1896 109.563 70.679C111.466 73.393 116.348 73.9391 120.138 73.9391H121.908C140.211 73.9391 148.634 87.7738 148.634 100.665V110.429C148.634 125.753 134.121 138.098 116.348 138.098H90.4492V118.439L110.109 110.429V118.439H116.348C123.679 118.439 128.826 114.235 128.826 110.429V100.665C128.826 93.7479 124.358 93.7479 121.908 93.7479H118.781V93.6155C99.2531 93.2018 88 82.0811 88 62.8349C88 50.622 98.4422 36.3901 112.277 35.0331V35.0165Z" fill="white"/>
<path d="M175.758 138.231H155.419V138.098L160.434 118.439L176.172 54.8253L171.29 35.0165H206.141L225.95 138.231H205.876L201.938 117.611H180.921L175.774 138.231H175.758ZM185.803 97.9513H198.148L192.72 70.0171L185.803 97.9513Z" fill="white"/>
<path d="M288.19 35.0165V138.231H268.381V108.658L253.189 77.5964V138.231H233.529V54.8088L227.969 35H254.281L268.381 63.7616V35.0165H288.19Z" fill="white"/>
<path d="M360.623 57.9365V115.178C360.623 127.789 350.313 138.098 337.703 138.098H300.535V54.8088L294.975 35H337.703C350.313 35 360.623 45.3098 360.623 57.92V57.9365ZM340.963 57.9365C340.963 56.1658 339.474 54.8088 337.703 54.8088H320.211V118.422H337.703C339.458 118.422 340.963 116.933 340.963 115.162V57.9365Z" fill="white"/>
<path d="M427.629 44.9127V54.8088L407.82 62.9508V54.8088H392.628V73.9391H415.135V93.7479H392.628V118.439H407.82V110.297L427.629 118.439V138.098H372.969L367.408 118.439H372.969V54.8088L367.408 35H427.629V44.8961V44.9127Z" fill="white"/>
<path d="M493.427 138.098L483.663 138.231H473.767L473.502 96.7267C473.502 95.1049 472.145 93.7479 470.374 93.7479H459.519V138.231H439.859V93.7479L434.431 73.9391H439.859V54.544L434.431 35.0165H465.757C482.703 36.3735 494.651 48.3052 494.651 64.4401C494.651 71.4899 492.351 77.7288 488.28 82.6106C491.259 86.4003 493.162 91.2987 493.162 96.5777L493.427 138.082V138.098ZM474.843 64.4567C474.843 55.1067 464.533 54.5606 462.497 54.5606H459.651V73.9556H462.497C465.344 73.9556 474.843 73.2771 474.843 64.4567Z" fill="white"/>
<path d="M525.713 35.0165H558.811V54.544L539.002 62.8184V54.544H528.146C525.167 54.544 521.096 59.8396 521.096 62.8184C521.096 66.4756 521.775 69.1896 522.999 70.679C524.902 73.393 529.784 73.9391 533.574 73.9391H535.345C553.647 73.9391 562.071 87.7738 562.071 100.665V110.429C562.071 125.753 547.558 138.098 529.784 138.098H503.886V118.439L523.545 110.429V118.439H529.784C537.115 118.439 542.262 114.235 542.262 110.429V100.665C542.262 93.7479 537.794 93.7479 535.345 93.7479H532.217V93.6155C512.689 93.2018 501.436 82.0811 501.436 62.8349C501.436 50.622 511.879 36.3901 525.713 35.0331V35.0165Z" fill="white"/>
<path d="M221.075 160.817V223.951H208.961V196.728H196.351V223.951H184.32V196.728L180.911 184.614H184.32V172.915L180.911 160.801H196.351V184.614H208.961V160.801H221.075V160.817Z" fill="white"/>
<path d="M239.759 223.967H227.314V223.885L230.375 211.854L240.007 172.948L237.028 160.834H258.343L270.456 223.967H258.177L255.778 211.357H242.919L239.759 223.967ZM245.898 199.326H253.444L250.118 182.231L245.882 199.326H245.898Z" fill="white"/>
<path d="M276.679 160.817H292.119V209.851C292.119 210.927 293.029 211.837 294.104 211.837H302.809C303.885 211.837 304.795 210.927 304.795 209.851V160.817H316.826V209.851C316.826 217.563 310.521 223.868 302.809 223.868H294.104C286.31 223.868 280.088 217.563 280.088 209.851V172.766L276.679 160.817Z" fill="white"/>
<path d="M326.474 160.817H338.505V211.837H347.805V206.856H359.919V223.868H326.474L323.065 211.837H326.474V172.931L323.065 160.817H326.474Z" fill="white"/>
<path d="M381.564 223.885V223.967L366.125 223.885L369.534 211.854V172.948L366.125 160.834H384.957L381.548 172.948V211.854L384.957 223.885H381.548H381.564Z" fill="white"/>
<path d="M428.033 160.817V223.951H415.92V205.863L406.619 186.865V223.951H394.588V172.931L391.179 160.817H407.281L415.903 178.409V160.817H428.017H428.033Z" fill="white"/>
<path d="M452.922 184.631H471.093V209.851C471.093 217.563 464.788 223.868 456.993 223.868H448.206C440.494 223.868 434.272 217.646 434.272 210.017V174.834C434.272 167.123 440.577 160.817 448.289 160.817H456.993C464.705 160.817 471.093 167.123 471.093 174.917L458.979 177.813V174.917C458.979 173.841 458.069 172.931 456.993 172.931H448.289C447.213 172.931 446.303 173.759 446.303 174.834V210.017C446.303 211.01 447.13 211.837 448.206 211.837H456.993C458.069 211.837 458.979 210.927 458.979 209.851V196.745H456.331L452.922 184.631Z" fill="white"/>
<path d="M96 182.082H108.047V186.848H101.064V190.175H106.873V194.891H101.064V198.366H108.279V203.132H96V182.082Z" fill="#E65236"/>
<path d="M111.125 198.118L115.213 196.165C115.792 197.373 116.702 198.747 118.49 198.747C119.665 198.747 120.724 198.151 120.724 196.728C120.724 195.718 120.26 195.222 118.457 194.477L117.199 193.981C114.551 192.889 111.887 191.366 111.887 187.792C111.887 184.217 114.932 181.801 118.523 181.801C122.114 181.801 124.381 184.085 125.39 186.302L121.65 188.503C120.757 186.964 119.78 186.401 118.721 186.401C117.662 186.401 116.851 186.881 116.851 187.891C116.851 188.669 117.282 189.281 119.35 190.108L120.724 190.671C124.48 192.243 125.986 193.997 125.986 196.811C125.986 201.345 122.048 203.447 118.572 203.447C115.097 203.447 111.903 201.229 111.125 198.134V198.118Z" fill="#E65236"/>
<path d="M132.175 186.848H127.641V182.082H141.774V186.848H137.239V203.116H132.175V186.848Z" fill="#E65236"/>
<path d="M144.62 200.551C144.62 198.796 145.911 197.671 147.4 197.671C148.89 197.671 150.18 198.796 150.18 200.551C150.18 202.305 148.857 203.43 147.4 203.43C145.944 203.43 144.62 202.305 144.62 200.551Z" fill="#E65236"/>
<path d="M508.907 190.654H504.654L507.616 182.082H511.819L508.923 190.654H508.907Z" fill="#E65236"/>
<path d="M514.815 192.624C514.815 186.186 519.647 181.801 525.307 181.801C530.966 181.801 535.832 186.186 535.832 192.624C535.832 199.061 530.999 203.447 525.307 203.447C519.614 203.447 514.815 199.061 514.815 192.624ZM525.307 198.697C528.385 198.697 530.735 196.215 530.735 192.624C530.735 189.033 528.385 186.55 525.307 186.55C522.229 186.55 519.912 189.033 519.912 192.624C519.912 196.215 522.262 198.697 525.307 198.697Z" fill="#E65236"/>
<path d="M539.059 196.38C539.059 193.12 540.664 190.903 542.104 188.917L546.936 182.099H552.513L546.886 190.042C547.035 190.009 547.201 190.009 547.366 190.009C550.411 190.009 553.175 192.624 553.175 196.529C553.175 200.948 549.699 203.43 546.075 203.43C542.451 203.43 539.059 200.948 539.059 196.38ZM546.125 199.012C547.681 199.012 548.458 197.82 548.458 196.662C548.458 195.503 547.681 194.262 546.125 194.262C544.569 194.262 543.775 195.47 543.775 196.662C543.775 197.853 544.586 199.012 546.125 199.012Z" fill="#E65236"/>
</g>
<defs>
<clipPath id="clip0_9_457">
<rect width="650" height="259.351" fill="white"/>
</clipPath>
</defs>
</svg>
